PathFileType	4	(X/Y/Z)	/Users/itak/Documents/Research/Walk-IL/dataset/trc/00321_00011.trc
DataRate	CameraRate	NumFrames	NumMarkers	Units	OrigDataRate	OrigDataStartFrame	OrigNumFrames
100.000000	100.000000	4	55	mm	100.000000	244	488
Frame#	Time	LPSI			L3			STRN			T10			C7			CLAV			RBAK			LBAK			LSHO			LUPA			LAEL			LAOL			LWTS			LWPS			LFRA			LIFD			LHPS			RSHO			RUPA			RAEL			RAOL			RWTS			RWPS			RFRA			RIFD			RHTS			RHPS			RBHD			LFHD			RFHD			LBHD			LHIP			RHIP			RASI			LASI			LKNE			LTHI			LANK			LTIP			LTOE			LMT1			LMT5			LHEE			RKNE			RTHI			RANK			RTIP			RTOE			RMT1			RMT5			RHEE			RPSI			LHTS			*53			*54			
		X1	Y1	Z1	X2	Y2	Z2	X3	Y3	Z3	X4	Y4	Z4	X5	Y5	Z5	X6	Y6	Z6	X7	Y7	Z7	X8	Y8	Z8	X9	Y9	Z9	X10	Y10	Z10	X11	Y11	Z11	X12	Y12	Z12	X13	Y13	Z13	X14	Y14	Z14	X15	Y15	Z15	X16	Y16	Z16	X17	Y17	Z17	X18	Y18	Z18	X19	Y19	Z19	X20	Y20	Z20	X21	Y21	Z21	X22	Y22	Z22	X23	Y23	Z23	X24	Y24	Z24	X25	Y25	Z25	X26	Y26	Z26	X27	Y27	Z27	X28	Y28	Z28	X29	Y29	Z29	X30	Y30	Z30	X31	Y31	Z31	X32	Y32	Z32	X33	Y33	Z33	X34	Y34	Z34	X35	Y35	Z35	X36	Y36	Z36	X37	Y37	Z37	X38	Y38	Z38	X39	Y39	Z39	X40	Y40	Z40	X41	Y41	Z41	X42	Y42	Z42	X43	Y43	Z43	X44	Y44	Z44	X45	Y45	Z45	X46	Y46	Z46	X47	Y47	Z47	X48	Y48	Z48	X49	Y49	Z49	X50	Y50	Z50	X51	Y51	Z51	X52	Y52	Z52	X53	Y53	Z53	X54	Y54	Z54	X55	Y55	Z55	

245	2.44	115.3916320800781	938.1870727539062	-75.87100982666016	102.5096893310547	998.8919067382812	0.7262310981750488	324.9781494140625	1190.434692382812	-15.83036804199219	83.28350830078125	1116.832153320312	0.8286203742027283	116.8124160766602	1365.703002929688	-23.66791725158691	274.5286865234375	1312.1025390625	-23.01494026184082	75.04622650146484	1228.218017578125	53.10608291625977	103.5882873535156	1324.986450195312	-121.7997207641602	186.1277160644531	1340.777099609375	-183.2177734375	144.8220367431641	1225.0390625	-244.3216247558594	105.4208526611328	1023.939453125	-240.0409851074219	56.95383453369141	1030.724975585938	-170.5348815917969	107.0618286132812	758.09375	-196.0237884521484	60.99641418457031	768.6643676757812	-246.9416198730469	83.39958953857422	922.0669555664062	-242.4327545166016	33.75821685791016	613.571533203125	-186.2535400390625	25.79213523864746	707.7718505859375	-236.9354095458984	181.8417816162109	1359.618774414062	137.0744934082031	183.9308776855469	1296.544189453125	204.4285125732422	272.7553405761719	1046.478393554688	261.8380432128906	227.2394714355469	1015.084838867188	184.0022125244141	468.9083251953125	900.1669921875	193.1521911621094	457.6181030273438	870.7616577148438	262.9975280761719	325.3945617675781	996.16650390625	269.0905456542969	580.673583984375	767.3545532226562	197.4909057617188	549.738525390625	832.8341064453125	200.3237457275391	515.3876953125	809.7715454101562	254.5137939453125	155.1672210693359	1568.685791015625	48.53031539916992	318.7493896484375	1591.628173828125	-79.32417297363281	313.1366577148438	1596.58349609375	21.38909912109375	136.2928009033203	1553.54541015625	-95.00193023681641	217.9830322265625	893.274658203125	-171.4082794189453	174.3916320800781	882.6036376953125	170.4868316650391	282.6739501953125	914.449951171875	140.7065734863281	326.3327941894531	925.9501342773438	-94.72438049316406	423.56494140625	467.4783630371094	-122.8254699707031	369.5024719238281	596.8585205078125	-146.02880859375	392.4214172363281	43.23081588745117	-99.28364562988281	420.9797058105469	242.62744140625	-120.7895126342773	597.6149291992188	42.09980392456055	-29.65702819824219	525.947509765625	28.43227195739746	9.094661712646484	517.9481201171875	38.23078918457031	-103.940071105957	356.3052978515625	38.23365020751953	-33.17517471313477	184.5099945068359	428.5793762207031	139.4749755859375	237.6551666259766	675.7634887695312	171.8578948974609	-118.2982482910156	135.2827301025391	82.34832763671875	120.2738189697266	322.4827270507812	122.7454528808594	14.72260665893555	37.05059051513672	23.91844367980957	-27.18031692504883	46.10794830322266	-16.39536094665527	-56.84321212768555	56.27444839477539	99.04946136474609	-150.9418640136719	173.743408203125	35.88516616821289	105.3414993286133	936.3973388671875	53.8726806640625	78.48699951171875	708.358642578125	-201.3236541748047	nan	nan	nan	nan	nan	nan	
246	2.45	126.1110763549805	939.3724975585938	-76.52809143066406	113.330924987793	999.7655639648438	-0.08899077773094177	335.4983520507812	1191.949340820312	-16.10153388977051	94.11322021484375	1117.645874023438	-0.3882340490818024	126.8569564819336	1366.609985351562	-24.54232978820801	284.6569519042969	1313.45556640625	-23.32794952392578	85.15312957763672	1229.093994140625	52.00689697265625	114.1176300048828	1325.904174804688	-122.797981262207	196.8268280029297	1341.996704101562	-183.8289642333984	157.2507171630859	1225.781860351562	-245.2791290283203	120.7433471679688	1024.037719726562	-241.9051971435547	71.20045471191406	1030.113403320312	-172.9877014160156	127.0112762451172	758.4624633789062	-197.4550018310547	80.99281311035156	767.8550415039062	-248.6255950927734	100.4341049194336	921.6961669921875	-244.1862640380859	56.80700302124023	612.3199462890625	-187.9811096191406	47.13317489624023	706.237548828125	-238.8620147705078	191.3121795654297	1360.667236328125	136.4327087402344	192.9605407714844	1297.465454101562	203.6958465576172	278.2401428222656	1046.037719726562	260.2973327636719	233.1542358398438	1015.888610839844	181.7443237304688	472.7269592285156	896.7045288085938	192.7975769042969	460.5753479003906	867.6046142578125	262.516357421875	330.1948852539062	994.9202880859375	267.9355163574219	582.0135498046875	761.91552734375	197.3811950683594	552.3524169921875	828.0151977539062	200.1631774902344	517.1903076171875	805.4242553710938	254.3034057617188	164.8692626953125	1569.766479492188	47.81501007080078	328.9448547363281	1592.645629882812	-79.45883178710938	323.0280151367188	1597.552612304688	21.21987724304199	146.4938812255859	1554.746459960938	-95.76443481445312	228.5152435302734	894.8795776367188	-172.3438415527344	185.5490264892578	883.1549682617188	169.6220703125	293.6175537109375	915.539306640625	139.5007934570312	336.9830017089844	927.4501953125	-95.77140808105469	432.2144470214844	467.5174255371094	-123.2724151611328	379.5313720703125	597.8357543945312	-146.7171020507812	392.9738159179688	43.73759078979492	-98.91416168212891	425.5322875976562	242.2538604736328	-120.436897277832	598.0787963867188	40.11830139160156	-29.03473854064941	526.198486328125	27.28046989440918	9.581854820251465	518.4982299804688	37.7522087097168	-103.5322494506836	356.6151123046875	38.5827751159668	-32.97094345092773	202.5710144042969	429.6943664550781	141.4774780273438	251.6790161132812	676.693115234375	171.6617431640625	-107.0915145874023	143.4419555664062	82.93257904052734	136.3815612792969	325.2670593261719	124.9965515136719	16.67463111877441	36.02378082275391	24.43880271911621	-22.49758338928223	48.33197784423828	-15.76186370849609	-52.4185676574707	59.74354934692383	99.56917572021484	-136.3132476806641	184.3424530029297	36.55602264404297	116.1058654785156	937.0059204101562	53.22511672973633	99.80452728271484	706.8624877929688	-203.2519226074219	nan	nan	nan	nan	nan	nan	
247	2.46	136.5193176269531	940.5447387695312	-77.23587799072266	123.8508682250977	1000.711364746094	-0.9690671563148499	345.8840026855469	1193.463989257812	-16.30341720581055	104.7397766113281	1118.545654296875	-1.531767010688782	136.8301696777344	1367.576904296875	-25.3658504486084	294.6969909667969	1314.827880859375	-23.55088424682617	95.14273071289062	1230.02783203125	50.93586349487305	124.6066741943359	1326.8955078125	-123.7414703369141	207.4964447021484	1343.292724609375	-184.3680419921875	169.6670989990234	1226.631225585938	-246.1826324462891	136.2260894775391	1024.252807617188	-243.7940673828125	85.59524536132812	1029.5439453125	-175.5154418945312	147.5755462646484	759.0932006835938	-198.9444580078125	101.6259918212891	767.2130737304688	-250.3636779785156	117.7900619506836	921.4468994140625	-246.0048675537109	80.8067626953125	611.2343139648438	-189.8159484863281	69.23023223876953	704.8037109375	-240.8923187255859	200.6692657470703	1361.751708984375	135.8495025634766	201.8938140869141	1298.436767578125	203.0308074951172	283.55712890625	1045.691772460938	258.7716674804688	238.9467620849609	1016.769714355469	179.5463104248047	476.1627502441406	893.0497436523438	192.5212707519531	463.1164245605469	864.3461303710938	262.1582336425781	334.7906494140625	993.7271728515625	266.7736511230469	582.6195678710938	756.094970703125	197.3636322021484	554.4454345703125	822.9187622070312	200.0578460693359	518.432373046875	800.8681030273438	254.2145843505859	174.5358581542969	1570.884765625	47.17204284667969	339.060546875	1593.71728515625	-79.54707336425781	332.8464965820312	1598.57421875	21.10563087463379	156.6193695068359	1555.984985351562	-96.4429931640625	238.7695159912109	896.3331909179688	-173.1966247558594	196.4014587402344	883.7515258789062	168.7394866943359	304.2589721679688	916.7501220703125	138.3301849365234	347.3840026855469	928.8751220703125	-96.77768707275391	439.939208984375	467.4183654785156	-123.5695571899414	389.1510925292969	598.69482421875	-147.4828186035156	393.3974914550781	44.17800903320312	-98.53395080566406	429.4859008789062	241.8223419189453	-120.1114501953125	598.3519897460938	38.71464157104492	-28.4599609375	526.33935546875	26.4628791809082	10.02642250061035	518.8988037109375	37.48165893554688	-103.1477813720703	356.8544006347656	38.8393669128418	-32.72802352905273	221.2503356933594	430.8608093261719	143.5486907958984	265.7528381347656	677.7345581054688	171.5534362792969	-94.68900299072266	152.0441131591797	83.72412109375	153.4309387207031	328.202880859375	127.3235702514648	19.50785446166992	34.65079116821289	25.1040210723877	-16.8533992767334	51.23007965087891	-14.94759464263916	-47.14102935791016	64.06321716308594	100.1243209838867	-120.3128204345703	195.2564239501953	37.4754638671875	126.5375823974609	937.6488647460938	52.55016326904297	121.8720474243164	705.4575805664062	-205.2914733886719	nan	nan	nan	nan	nan	nan	
248	2.47	146.5931701660156	941.6817626953125	-77.99497222900391	134.0458831787109	1001.713623046875	-1.915079832077026	356.0978393554688	1194.93359375	-16.41690444946289	115.1135635375977	1119.52587890625	-2.604405879974365	146.7289428710938	1368.59716796875	-26.14525985717773	304.6378173828125	1316.185302734375	-23.67747497558594	104.9996490478516	1231.008056640625	49.86859130859375	135.0480041503906	1327.9453125	-124.6433868408203	218.1449890136719	1344.631713867188	-184.8395233154297	182.0650482177734	1227.544067382812	-247.0245361328125	151.8424377441406	1024.560302734375	-245.694091796875	100.1261901855469	1028.98291015625	-178.1058044433594	168.6871185302734	759.9679565429688	-200.4674224853516	122.8570098876953	766.7443237304688	-252.1530456542969	135.4320068359375	921.3032836914062	-247.8836517333984	105.7129516601562	610.3571166992188	-191.7470397949219	92.038330078125	703.4918823242188	-243.0130462646484	209.8961639404297	1362.836791992188	135.3322448730469	210.6920471191406	1299.407592773438	202.4332427978516	288.7334594726562	1045.411499023438	257.2796936035156	244.6548461914062	1017.670043945312	177.43408203125	479.232421875	889.2208862304688	192.3421325683594	465.2704467773438	860.990478515625	261.9317932128906	339.2060852050781	992.566162109375	265.6171569824219	582.5137329101562	749.9313354492188	197.4722900390625	556.03271484375	817.5653076171875	200.0374450683594	519.16015625	796.1312866210938	254.2470703125	184.1688385009766	1572.022338867188	46.61478042602539	349.0898742675781	1594.831420898438	-79.58412933349609	342.5875854492188	1599.639282226562	21.04840850830078	166.6665496826172	1557.23828125	-97.03018188476562	248.7780151367188	897.6287231445312	-173.9549102783203	206.9171905517578	884.3528442382812	167.8584442138672	314.5784301757812	918.0311279296875	137.2313385009766	357.5514526367188	930.1959838867188	-97.71192169189453	446.753662109375	467.1826171875	-123.6687316894531	398.1654663085938	599.341552734375	-148.2211151123047	393.7143249511719	44.55408477783203	-98.16559600830078	432.9166259765625	241.366455078125	-119.8511123657227	598.5027465820312	37.76377105712891	-27.94321250915527	526.3980712890625	25.91789817810059	10.4181547164917	519.1814575195312	37.35475540161133	-102.797119140625	357.0525207519531	39.03515625	-32.46598052978516	240.4487152099609	432.0831909179688	145.6035308837891	279.8099365234375	678.8806762695312	171.5343475341797	-81.12073516845703	161.0197906494141	84.68689727783203	171.3406829833984	331.2197875976562	129.6293334960938	23.4606761932373	33.025390625	26.01897430419922	-10.02038860321045	54.82915496826172	-13.8932580947876	-40.76070404052734	69.27767944335938	100.7836532592773	-103.0870132446289	206.3223114013672	38.57994842529297	136.6186370849609	938.27294921875	51.85800552368164	144.6485443115234	704.1588134765625	-207.4267425537109	nan	nan	nan	nan	nan	nan	
